<?xml version="1.0" encoding="utf-8" ?><svg xmlns="http://www.w3.org/2000/svg" xmlns:xlink="http://www.w3.org/1999/xlink" width="1024" height="1024" viewBox="0 0 1024 1024"><path fill="#F1F2F2" transform="scale(2 2)" d="M328.087 104.001L328.068 93.7982C328.069 87.632 327.824 81.605 332.502 76.9467C338.659 70.815 349.064 71.1123 355.052 77.3105C359.796 82.2213 359.399 87.4293 359.429 93.7006L359.435 104.001L383.437 103.99C428.243 103.989 439.554 118.921 439.514 162.62L439.56 188.613C439.558 189.134 439.578 190.267 439.517 190.745C439.122 198.439 439.48 203.363 439.497 210.694L439.525 375.231C439.474 393.995 440.95 415.159 425.565 429.017C412.079 441.163 390.576 438.879 373.75 438.734L298.494 438.593C292.238 438.609 282.35 439.544 277.034 438.725C266.488 438.449 255.413 438.649 244.864 438.713L129.81 438.736C111.363 438.732 99.1464 439.862 85.1761 426.157C70.7639 412.02 72.7282 395.348 72.7255 377.025L72.7355 190.745L72.7218 158.888C72.721 152.827 72.2614 144.273 73.419 138.559C77.014 120.813 91.692 106.354 109.874 104.299C115.207 103.696 121.691 103.99 127.13 103.993L151.926 104.001C151.829 100.837 151.748 98.2754 151.926 95.1148C150.141 61.7225 183.563 70.4834 183.385 88.6071C183.358 93.7356 183.29 98.8682 183.291 104.001C192.145 103.789 201.089 104.001 209.973 104.006L305.688 104.004C312.989 104.001 320.894 103.764 328.087 104.001Z"/><path fill="#9496D0" transform="scale(2 2)" d="M328.087 104.001L328.068 93.7982C328.069 87.632 327.824 81.605 332.502 76.9467C338.659 70.815 349.064 71.1123 355.052 77.3105C359.796 82.2213 359.399 87.4293 359.429 93.7006L359.435 104.001L383.437 103.99C428.243 103.989 439.554 118.921 439.514 162.62L439.56 188.613C439.558 189.134 439.578 190.267 439.517 190.745L105.951 190.745L72.7355 190.745L72.7218 158.888C72.721 152.827 72.2614 144.273 73.419 138.559C77.014 120.813 91.692 106.354 109.874 104.299C115.207 103.696 121.691 103.99 127.13 103.993L151.926 104.001C151.829 100.837 151.748 98.2754 151.926 95.1148C150.141 61.7225 183.563 70.4834 183.385 88.6071C183.358 93.7356 183.29 98.8682 183.291 104.001C192.145 103.789 201.089 104.001 209.973 104.006L305.688 104.004C312.989 104.001 320.894 103.764 328.087 104.001Z"/><path fill="#5F7C9D" transform="scale(2 2)" d="M328.087 104.001L328.068 93.7982C328.069 87.632 327.824 81.605 332.502 76.9467C338.659 70.815 349.064 71.1123 355.052 77.3105C359.796 82.2213 359.399 87.4293 359.429 93.7006L359.435 104.001C359.428 107.69 359.167 116.472 359.435 119.789C358.748 127.108 360.779 133.355 354.968 139.479C349.011 145.758 338.974 145.314 332.926 139.49C327.117 133.895 328.088 126.408 328.087 119.026C328.321 116.214 328.091 107.192 328.087 104.001Z"/><path fill="#5F7C9D" transform="scale(2 2)" d="M151.926 95.1148C150.141 61.7225 183.563 70.4834 183.385 88.6071C183.358 93.7356 183.29 98.8682 183.291 104.001C183.177 107.328 182.681 116.72 183.291 119.789C181.663 123.687 185.697 131.908 179.73 138.461C169.767 149.402 152.887 142.904 152.128 128.318C151.972 125.318 152.162 122.153 151.947 119.282L151.926 119.026C151.363 112.398 152.719 101.217 151.926 95.1148Z"/><path fill="#4E518D" transform="scale(2 2)" d="M328.087 119.026C328.088 126.408 327.117 133.895 332.926 139.49C338.974 145.314 349.011 145.758 354.968 139.479C360.779 133.355 358.748 127.108 359.435 119.789C365.091 124.312 368.597 132.254 367.554 139.367C362.99 170.49 317.484 165.515 319.966 133.87C320.398 128.36 323.71 122.449 328.087 119.026Z"/><path fill="#4E518D" transform="scale(2 2)" d="M151.926 119.026L151.947 119.282C152.162 122.153 151.972 125.318 152.128 128.318C152.887 142.904 169.767 149.402 179.73 138.461C185.697 131.908 181.663 123.687 183.291 119.789C199.432 129.862 190.534 161.459 166.223 160.213C144.932 159.121 136.53 132.66 151.926 119.026Z"/><path fill="#C4D5E6" transform="scale(2 2)" d="M72.7355 190.745L105.951 190.745C105.704 193.57 105.916 196.943 105.937 199.841L105.951 214.366C106.025 273.719 120.716 326.006 158.649 371.684C187.108 405.954 226.648 428.522 270.23 436.868C271.423 437.096 276.683 437.794 277.034 438.725C266.488 438.449 255.413 438.649 244.864 438.713L129.81 438.736C111.363 438.732 99.1464 439.862 85.1761 426.157C70.7639 412.02 72.7282 395.348 72.7255 377.025L72.7355 190.745Z"/><path fill="#FDC752" transform="scale(2 2)" d="M196.364 237.632C215.28 222.426 239.274 214.99 263.474 216.832C291.245 218.946 316.711 233.074 333.206 255.515C349.7 277.957 355.581 306.48 349.308 333.616C348.12 338.755 346.509 343.787 344.49 348.66C329.221 385.525 292.649 409.018 252.772 407.577C212.896 406.137 178.115 380.066 165.545 342.195C152.975 304.325 165.264 262.631 196.364 237.632Z"/><path fill="#9496D0" transform="scale(2 2)" d="M263.474 216.832C291.245 218.946 316.711 233.074 333.206 255.515C349.7 277.957 355.581 306.48 349.308 333.616C339.073 338.715 329.345 342.465 317.786 343.549C278.846 347.2 243.806 316.386 240.617 277.72C238.509 252.155 247.989 235.276 263.474 216.832Z"/><path fill="#FAAE41" transform="scale(2 2)" d="M344.49 348.66C329.221 385.525 292.649 409.018 252.772 407.577C212.896 406.137 178.115 380.066 165.545 342.195C152.975 304.325 165.264 262.631 196.364 237.632C196.593 239.255 189.337 253.173 188.132 256.575C165.949 319.186 209.859 384.774 276.155 382.712C297.892 382.036 320.976 372.8 335.768 356.734C337.264 355.109 342.673 348.754 344.49 348.66Z"/></svg>